# xmcd CD database file generated by OrangeCD 6.0
#
# Track frame offsets:
#	150
#	16225
#	29911
#	42605
#	56250
#	73577
#	85939
#	101777
#	120403
#	134832
#	150752
#	165924
#	179163
#	193285
#	210442
#	231010
#	247742
#	264136
#	281146
#	300863
#	316525
#	333617
#
# Disc length: 4749 seconds
#
# Revision: 0
# Processed by: cddbd v1.5.2PL0 Copyright (c) Steve Scherf et al.
# Submitted via: OrangeCD 6.0
#
DISCID=2a128b16
DTITLE=Peter Green - Hot Foot Powder - Legend
DYEAR=2000
DGENRE=Blues
TTITLE0=I'm A Steady Rollin' Man
TTITLE1=From Four Until Late
TTITLE2=Dead Shrimp Blues
TTITLE3=Little Queen Of Spades
TTITLE4=They're Red Hot
TTITLE5=Preachin' Blues
TTITLE6=Hell Hound On My Trail
TTITLE7=Traveling Riverside Blues
TTITLE8=Malted Milk
TTITLE9=Milkcow's Calf Blues
TTITLE10=Drunken Hearted Man
TTITLE11=Cross Road Blues
TTITLE12=Come On In My Kitchen
TTITLE13=Touch My Spirit
TTITLE14=Six String Guitar
TTITLE15=Proud Pinto
TTITLE16=You Won't See Me Anymore
TTITLE17=Long Way From Home
TTITLE18=Rubbing My Eyes
TTITLE19=What Am I Doing Here
TTITLE20=Corner Of My Mind
TTITLE21=Carry My Love
EXTD=
EXTT0=
EXTT1=
EXTT2=
EXTT3=
EXTT4=
EXTT5=
EXTT6=
EXTT7=
EXTT8=
EXTT9=
EXTT10=
EXTT11=
EXTT12=
EXTT13=
EXTT14=
EXTT15=
EXTT16=
EXTT17=
EXTT18=
EXTT19=
EXTT20=
EXTT21=
PLAYORDER=
